<?xml version="1.0" encoding="UTF-8"?>
<svg version="1.1" xmlns="http://www.w3.org/2000/svg" width="500" height="500">
<path d="M0 0 C165 0 330 0 500 0 C500 165 500 330 500 500 C335 500 170 500 0 500 C0 335 0 170 0 0 Z " fill="#FEFEFE" transform="translate(0,0)"/>
<path d="M0 0 C3.3 0 6.6 0 10 0 C10.33 4.95 10.66 9.9 11 15 C12.4025 13.453125 13.805 11.90625 15.25 10.3125 C16.03890625 9.44238281 16.8278125 8.57226562 17.640625 7.67578125 C20.03915605 5.06268871 20.03915605 5.06268871 21.9375 2.1875 C24 0 24 0 26.796875 -0.48828125 C27.77140625 -0.43027344 28.7459375 -0.37226563 29.75 -0.3125 C30.73484375 -0.26738281 31.7196875 -0.22226563 32.734375 -0.17578125 C33.85585938 -0.08876953 33.85585938 -0.08876953 35 0 C33.38462556 3.89917968 30.72075127 6.71293772 27.875 9.75 C27.40707031 10.25660156 26.93914062 10.76320312 26.45703125 11.28515625 C25.30873459 12.52719141 24.15491328 13.76411494 23 15 C23.42410156 15.66644531 23.84820312 16.33289063 24.28515625 17.01953125 C25.51621482 18.95405187 26.74664104 20.88897498 27.9765625 22.82421875 C29.32080361 24.93400257 30.66973556 27.04080527 32.0234375 29.14453125 C32.65507812 30.12808594 33.28671875 31.11164063 33.9375 32.125 C34.52402344 33.03507812 35.11054688 33.94515625 35.71484375 34.8828125 C37 37 37 37 37 38 C32.75333496 38.84071034 29.21174185 39.11206087 25 38 C21.01728489 34.4995511 18.50397723 29.60327127 16 25 C13.3094472 26.22007944 13.3094472 26.22007944 11 28 C10.76712992 29.68183948 10.58735834 31.3712416 10.4375 33.0625 C10.293125 34.691875 10.14875 36.32125 10 38 C6.7 38 3.4 38 0 38 C0 25.46 0 12.92 0 0 Z " fill="#0A0A0A" transform="translate(257,219)"/>
<path d="M0 0 C1.29296875 2.140625 1.29296875 2.140625 2 4 C0.35 5.65 -1.3 7.3 -3 9 C-5 8 -7 7 -9 6 C-13.49235451 5.39292507 -16.86473532 5.14162914 -20.5625 7.9375 C-22.47279903 12.0072675 -22.68143132 15.57069642 -22 20 C-21.0100348 22.3574595 -20.36823176 23.70258204 -18.375 25.3125 C-13.16904517 26.81948692 -7.77726384 25.23934243 -3 23 C-1.35 24.65 0.3 26.3 2 28 C-1.96185142 32.18195428 -4.42961857 34.73367132 -10.2421875 35.3359375 C-22.41561713 35.46683459 -22.41561713 35.46683459 -27 31 C-31.60682507 26.18377379 -33.55444371 22.30984671 -34.4375 15.75 C-33.74196441 9.78826641 -31.64674248 4.30083158 -27.02734375 0.28515625 C-18.24808879 -5.37623246 -9.07613161 -5.3759902 0 0 Z " fill="#C80D29" transform="translate(142,222)"/>
<path d="M0 0 C2.93963407 2.20472555 3.75798892 2.96003103 5 6.25 C5.22705078 8.72363281 5.22705078 8.72363281 5.1953125 11.453125 C5.18886719 12.4328125 5.18242187 13.4125 5.17578125 14.421875 C5.15902344 15.43765625 5.14226562 16.4534375 5.125 17.5 C5.11597656 18.53125 5.10695312 19.5625 5.09765625 20.625 C5.07412138 23.16676616 5.03825131 25.70841272 5 28.25 C1.7 28.25 -1.6 28.25 -5 28.25 C-5.33 27.59 -5.66 26.93 -6 26.25 C-6.99 26.91 -7.98 27.57 -9 28.25 C-13.6531944 28.91807132 -17.69547452 29.20453084 -21.5625 26.375 C-23.98679433 22.79126055 -24.51327451 20.61283334 -24 16.25 C-21.827365 13.67714276 -20.02006162 11.76003081 -17 10.25 C-14.95944995 10.17934383 -12.91665743 10.16578024 -10.875 10.1875 C-9.77929688 10.19652344 -8.68359375 10.20554688 -7.5546875 10.21484375 C-6.71164063 10.22644531 -5.86859375 10.23804688 -5 10.25 C-5.66 9.26 -6.32 8.27 -7 7.25 C-10.12557959 6.88469768 -10.12557959 6.88469768 -13.625 7.0625 C-14.81351563 7.08957031 -16.00203125 7.11664063 -17.2265625 7.14453125 C-18.14179688 7.17933594 -19.05703125 7.21414062 -20 7.25 C-20.66 5.27 -21.32 3.29 -22 1.25 C-14.79891405 -1.95048264 -7.35488728 -3.86857896 0 0 Z " fill="#D10421" transform="translate(170,228.75)"/>
<path d="M0 0 C-0.20496094 0.64066406 -0.40992188 1.28132812 -0.62109375 1.94140625 C-2.18827364 6.97287851 -3.43042174 11.75988003 -4 17 C-3.278125 16.071875 -2.55625 15.14375 -1.8125 14.1875 C0.50279117 11.41964483 2.65640949 9.49581681 6 8 C6.99 8.33 7.98 8.66 9 9 C8.505 9.804375 8.01 10.60875 7.5 11.4375 C5.64255335 15.84893581 4.99387776 19.28670427 6 24 C7.42067087 26.54035215 8.98131507 28.77227621 10.78515625 31.0546875 C11.18605469 31.69664062 11.58695312 32.33859375 12 33 C11.67 33.99 11.34 34.98 11 36 C2.42 36 -6.16 36 -15 36 C-18.16847002 28.60690329 -19.67485271 22.47478734 -17.2734375 14.625 C-15.25859452 10.30045897 -12.59804118 7.15925567 -9 4 C-8.154375 3.236875 -7.30875 2.47375 -6.4375 1.6875 C-4 0 -4 0 0 0 Z " fill="#D20733" transform="translate(364,179)"/>
<path d="M0 0 C2.9375 2.125 2.9375 2.125 3.9375 4.125 C4.02221364 5.93841842 4.04471083 7.75494161 4.03515625 9.5703125 C4.03193359 10.64667969 4.02871094 11.72304687 4.02539062 12.83203125 C4.01701172 13.95996094 4.00863281 15.08789062 4 16.25 C3.99548828 17.38566406 3.99097656 18.52132812 3.98632812 19.69140625 C3.97451615 22.50265638 3.95804507 25.3138023 3.9375 28.125 C0.9675 28.125 -2.0025 28.125 -5.0625 28.125 C-5.3925 27.465 -5.7225 26.805 -6.0625 26.125 C-7.0525 26.785 -8.0425 27.445 -9.0625 28.125 C-11.40234375 28.42578125 -11.40234375 28.42578125 -14 28.4375 C-14.85464844 28.45425781 -15.70929688 28.47101563 -16.58984375 28.48828125 C-19.56568275 28.05107268 -20.90107084 27.18972092 -23.0625 25.125 C-24.27026206 21.50171381 -24.46290892 18.92888473 -24.0625 15.125 C-21.02868218 12.09118218 -18.56544275 10.17704095 -14.2421875 10.02734375 C-13.15164063 10.03894531 -12.06109375 10.05054688 -10.9375 10.0625 C-9.84179688 10.07152344 -8.74609375 10.08054688 -7.6171875 10.08984375 C-6.77414062 10.10144531 -5.93109375 10.11304688 -5.0625 10.125 C-5.7225 9.135 -6.3825 8.145 -7.0625 7.125 C-9.13156777 6.72276009 -9.13156777 6.72276009 -11.4375 6.875 C-12.59378906 6.89820313 -12.59378906 6.89820313 -13.7734375 6.921875 C-15.9679806 7.11661261 -17.94614696 7.52584983 -20.0625 8.125 C-20.7225 5.815 -21.3825 3.505 -22.0625 1.125 C-14.80344875 -2.101245 -7.35564537 -4.02450269 0 0 Z " fill="#090909" transform="translate(320.0625,228.875)"/>
<path d="M0 0 C3.3 0 6.6 0 10 0 C10.33 0.99 10.66 1.98 11 3 C11.639375 2.484375 12.27875 1.96875 12.9375 1.4375 C17.16602888 -0.54731968 20.5433069 -0.24954012 25 1 C27.45243461 2.90063682 28.62927427 4.25854855 30 7 C30.08449628 8.7404417 30.10723024 10.48409722 30.09765625 12.2265625 C30.09443359 13.2578125 30.09121094 14.2890625 30.08789062 15.3515625 C30.07951172 16.43179688 30.07113281 17.51203125 30.0625 18.625 C30.05798828 19.71296875 30.05347656 20.8009375 30.04882812 21.921875 C30.0370179 24.61460662 30.01908205 27.30731009 30 30 C26.7 30 23.4 30 20 30 C20 23.4 20 16.8 20 10 C17.36 10 14.72 10 12 10 C10.88176185 12.23647631 10.80603939 13.64891529 10.68359375 16.1328125 C10.64169922 16.93847656 10.59980469 17.74414062 10.55664062 18.57421875 C10.49766602 19.83685547 10.49766602 19.83685547 10.4375 21.125 C10.39431641 21.97449219 10.35113281 22.82398438 10.30664062 23.69921875 C10.20045764 25.79928223 10.09971503 27.89961948 10 30 C6.7 30 3.4 30 0 30 C0 20.1 0 10.2 0 0 Z " fill="#B81631" transform="translate(204,227)"/>
<path d="M0 0 C2.97 0 5.94 0 9 0 C9 2.64 9 5.28 9 8 C11.31 8 13.62 8 16 8 C16 9.98 16 11.96 16 14 C13.69 14 11.38 14 9 14 C9.33 18.29 9.66 22.58 10 27 C11.98 27.33 13.96 27.66 16 28 C16.33 30.31 16.66 32.62 17 35 C14.18913877 35.93695374 12.06136028 36.29023573 9.125 36.4375 C8.28195312 36.49808594 7.43890625 36.55867188 6.5703125 36.62109375 C3.41859156 35.85950769 1.89370302 34.416667 -0.04492188 31.84692383 C-1.76640215 28.51793654 -1.52775162 25.28758908 -1.3125 21.625 C-1.28994141 20.88894531 -1.26738281 20.15289062 -1.24414062 19.39453125 C-1.18572927 17.59546158 -1.09606337 15.79745247 -1 14 C-2.32 14 -3.64 14 -5 14 C-5 12.02 -5 10.04 -5 8 C-3.35 8 -1.7 8 0 8 C0 5.36 0 2.72 0 0 Z " fill="#080808" transform="translate(356,221)"/>
<path d="M0 0 C3.3 0 6.6 0 10 0 C10 0.99 10 1.98 10 3 C10.7425 2.505 11.485 2.01 12.25 1.5 C15 0 15 0 19 0 C19 2.97 19 5.94 19 9 C17.88625 9.28875 16.7725 9.5775 15.625 9.875 C11.99708908 10.69241329 11.99708908 10.69241329 10 13 C9.69324768 15.89967757 9.48826629 18.71783178 9.375 21.625 C9.31699219 22.82769531 9.31699219 22.82769531 9.2578125 24.0546875 C9.16346069 26.03607556 9.08063785 28.01800645 9 30 C6.03 30 3.06 30 0 30 C0 20.1 0 10.2 0 0 Z " fill="#C01B34" transform="translate(181,227)"/>
<path d="M0 0 C3.3 0 6.6 0 10 0 C10.33 0.99 10.66 1.98 11 3 C11.86625 2.2575 11.86625 2.2575 12.75 1.5 C15 0 15 0 19 0 C19 2.97 19 5.94 19 9 C17.88625 9.28875 16.7725 9.5775 15.625 9.875 C11.99708908 10.69241329 11.99708908 10.69241329 10 13 C9.69324768 15.89967757 9.48826629 18.71783178 9.375 21.625 C9.31699219 22.82769531 9.31699219 22.82769531 9.2578125 24.0546875 C9.16346069 26.03607556 9.08063785 28.01800645 9 30 C6.03 30 3.06 30 0 30 C0 20.1 0 10.2 0 0 Z " fill="#080808" transform="translate(331,227)"/>
<path d="M0 0 C3.3 0 6.6 0 10 0 C10 9.9 10 19.8 10 30 C6.7 30 3.4 30 0 30 C0 20.1 0 10.2 0 0 Z " fill="#CB0423" transform="translate(240,227)"/>
<path d="M0 0 C1.09570312 0.00902344 2.19140625 0.01804688 3.3203125 0.02734375 C4.16335937 0.03894531 5.00640625 0.05054688 5.875 0.0625 C3.875 2.0625 3.875 2.0625 0.875 3.0625 C3.185 3.3925 5.495 3.7225 7.875 4.0625 C7.875 6.0425 7.875 8.0225 7.875 10.0625 C6.885 10.5575 6.885 10.5575 5.875 11.0625 C5.545 12.0525 5.215 13.0425 4.875 14.0625 C3.875 17.0625 3.875 17.0625 1.875 18.0625 C-6.85680873 18.99044483 -6.85680873 18.99044483 -10.6875 16.1875 C-13.11179433 12.60376055 -13.63827451 10.42533334 -13.125 6.0625 C-8.81669051 0.96055455 -6.51906912 -0.0693518 0 0 Z " fill="#BE1B35" transform="translate(159.125,238.9375)"/>
<path d="M0 0 C0.33 0.66 0.66 1.32 1 2 C3.02463255 2.65213292 3.02463255 2.65213292 5 3 C4.505 3.7425 4.505 3.7425 4 4.5 C2.09909671 9.25225823 2.69189067 14.1413082 4 19 C3.67 19.66 3.34 20.32 3 21 C3.66 21.33 4.32 21.66 5 22 C5.33 22.66 5.66 23.32 6 24 C5.34 24 4.68 24 4 24 C4 24.66 4 25.32 4 26 C4.99 26 5.98 26 7 26 C7 26.66 7 27.32 7 28 C8.32 28 9.64 28 11 28 C11 27.34 11 26.68 11 26 C14.61973402 24.68373308 17.09567131 24 21 24 C21.33 23.01 21.66 22.02 22 21 C22.99 21 23.98 21 25 21 C27 24 27 24 27 26 C25.43976848 29.12046304 23.16384006 29.68539516 20 31 C13.91303967 31.76778704 8.06740659 31.94302757 2.4375 29.375 C1.633125 28.59125 0.82875 27.8075 0 27 C-0.50402344 26.57589844 -1.00804688 26.15179688 -1.52734375 25.71484375 C-3 24.3125 -3 24.3125 -5 21 C-4.81357281 18.48746993 -4.28207012 16.35030441 -3.515625 13.953125 C-2.75430721 11.94079735 -2.75430721 11.94079735 -4 10 C-4.3125 7.125 -4.3125 7.125 -4 4 C-2 1.625 -2 1.625 0 0 Z " fill="#D00422" transform="translate(115,226)"/>
<path d="M0 0 C2.64 0 5.28 0 8 0 C8.33 1.65 8.66 3.3 9 5 C8.01 5.495 8.01 5.495 7 6 C7 5.34 7 4.68 7 4 C6.34 4 5.68 4 5 4 C5 6.64 5 9.28 5 12 C5.66 12 6.32 12 7 12 C7.33 11.01 7.66 10.02 8 9 C8 15.27 8 21.54 8 28 C5.36 28 2.72 28 0 28 C0 18.76 0 9.52 0 0 Z " fill="#D00220" transform="translate(205,228)"/>
<path d="M0 0 C2.475 0.495 2.475 0.495 5 1 C5.12375 1.969375 5.2475 2.93875 5.375 3.9375 C5.58125 4.948125 5.7875 5.95875 6 7 C6.66 7.33 7.32 7.66 8 8 C7.67 14.27 7.34 20.54 7 27 C4.69 27 2.38 27 0 27 C0 18.09 0 9.18 0 0 Z " fill="#D1021F" transform="translate(182,229)"/>
<path d="M0 0 C0.99 0 1.98 0 3 0 C3 0.66 3 1.32 3 2 C3.99 2.33 4.98 2.66 6 3 C7.05086948 5.76366247 7.11860688 8.39503741 7.09765625 11.328125 C7.09443359 12.12734375 7.09121094 12.9265625 7.08789062 13.75 C7.07951172 14.575 7.07113281 15.4 7.0625 16.25 C7.05798828 17.09046875 7.05347656 17.9309375 7.04882812 18.796875 C7.03707961 20.86461401 7.01914522 22.93231624 7 25 C4.69 25 2.38 25 0 25 C-0.1972935 21.58382503 -0.38112295 18.16705407 -0.5625 14.75 C-0.61857422 13.78191406 -0.67464844 12.81382812 -0.73242188 11.81640625 C-0.78076172 10.88183594 -0.82910156 9.94726562 -0.87890625 8.984375 C-0.9260376 8.12553711 -0.97316895 7.26669922 -1.02172852 6.38183594 C-1.00066921 4.07335735 -0.66206871 2.20243733 0 0 Z " fill="#D2011F" transform="translate(226,230)"/>
<path d="M0 0 C-0.20496094 0.64066406 -0.40992188 1.28132812 -0.62109375 1.94140625 C-2.18827364 6.97287851 -3.43042174 11.75988003 -4 17 C-3.34 17 -2.68 17 -2 17 C-2.33 17.99 -2.66 18.98 -3 20 C-4.32 19.67 -5.64 19.34 -7 19 C-7 17.35 -7 15.7 -7 14 C-7.66 13.67 -8.32 13.34 -9 13 C-9 13.66 -9 14.32 -9 15 C-9.99 15 -10.98 15 -12 15 C-12 13.68 -12 12.36 -12 11 C-12.66 11 -13.32 11 -14 11 C-15.45933748 16.99320151 -16.41509121 22.85845775 -17 29 C-17.33 29 -17.66 29 -18 29 C-18.56696004 19.55066594 -17.92138776 13.42412978 -11.5625 6.25 C-10.2940625 5.13625 -10.2940625 5.13625 -9 4 C-8.154375 3.236875 -7.30875 2.47375 -6.4375 1.6875 C-4 0 -4 0 0 0 Z " fill="#C7173C" transform="translate(364,179)"/>
<path d="M0 0 C0.33 0 0.66 0 1 0 C1 9.57 1 19.14 1 29 C4.3 29 7.6 29 11 29 C8.36451539 31.63548461 6.67645078 31.64649512 3 32 C0.9918674 31.71979545 -1.0075675 31.37593066 -3 31 C-6.66271673 30.62005013 -10.33050099 30.30687981 -14 30 C-14 29.67 -14 29.34 -14 29 C-11.03 29 -8.06 29 -5 29 C-5 22.07 -5 15.14 -5 8 C-4.67 8 -4.34 8 -4 8 C-4 9.65 -4 11.3 -4 13 C-2.68 12.67 -1.36 12.34 0 12 C0 8.04 0 4.08 0 0 Z " fill="#FEEFF2" transform="translate(239,228)"/>
<path d="M0 0 C1.92863714 1.84258246 2.92009594 3.34878977 3.24755859 6.01757812 C3.29505495 8.43427459 3.26111304 10.83398212 3.1875 13.25 C3.17396484 14.09046875 3.16042969 14.9309375 3.14648438 15.796875 C3.11123464 17.86485938 3.0574302 19.93251271 3 22 C0.36 22 -2.28 22 -5 22 C-5.33 20.35 -5.66 18.7 -6 17 C-5.01 16.67 -4.02 16.34 -3 16 C-3 14.02 -3 12.04 -3 10 C-5.31 10 -7.62 10 -10 10 C-10.33 9.34 -10.66 8.68 -11 8 C-7.535 7.505 -7.535 7.505 -4 7 C-4 6.34 -4 5.68 -4 5 C-2.68 4.67 -1.36 4.34 0 4 C0 2.68 0 1.36 0 0 Z " fill="#D3021F" transform="translate(170,233)"/>
<path d="M0 0 C0.33 0.66 0.66 1.32 1 2 C3.02463255 2.65213292 3.02463255 2.65213292 5 3 C4.505 3.7425 4.505 3.7425 4 4.5 C2.09909671 9.25225823 2.69189067 14.1413082 4 19 C3.67 19.66 3.34 20.32 3 21 C3.66 21.33 4.32 21.66 5 22 C5.33 22.66 5.66 23.32 6 24 C5.01 24.33 4.02 24.66 3 25 C2.34 24.67 1.68 24.34 1 24 C1 23.34 1 22.68 1 22 C0.38125 21.87625 -0.2375 21.7525 -0.875 21.625 C-3 21 -3 21 -5 19 C-4.4740625 17.329375 -4.4740625 17.329375 -3.9375 15.625 C-2.62760669 12.19735524 -2.62760669 12.19735524 -4 10 C-4.3125 7.125 -4.3125 7.125 -4 4 C-2 1.625 -2 1.625 0 0 Z " fill="#D3011F" transform="translate(115,226)"/>
<path d="M0 0 C-0.33 2.31 -0.66 4.62 -1 7 C-2.32 6.34 -3.64 5.68 -5 5 C-4.67 3.68 -4.34 2.36 -4 1 C-5.32 1 -6.64 1 -8 1 C-8 1.66 -8 2.32 -8 3 C-7.34 3.33 -6.68 3.66 -6 4 C-8.875 4.125 -8.875 4.125 -12 4 C-12.66 3.34 -13.32 2.68 -14 2 C-16.10820797 2.3185177 -16.10820797 2.3185177 -18 3 C-18 3.99 -18 4.98 -18 6 C-20.475 5.01 -20.475 5.01 -23 4 C-22.7265625 2.109375 -22.7265625 2.109375 -22 0 C-14.83780821 -4.6816278 -7.26196022 -3.55687847 0 0 Z " fill="#D40220" transform="translate(139,221)"/>
<path d="M0 0 C0.125 5.75 0.125 5.75 -1 8 C2.3 8.33 5.6 8.66 9 9 C8.67 10.32 8.34 11.64 8 13 C2.65998179 14.33500455 -0.83955235 13.512545 -6 12 C-6.33 9.36 -6.66 6.72 -7 4 C-6.34 4 -5.68 4 -5 4 C-5 3.01 -5 2.02 -5 1 C-3 0 -3 0 0 0 Z " fill="#D00321" transform="translate(154,242)"/>
<path d="M0 0 C0.33 0 0.66 0 1 0 C1 9.57 1 19.14 1 29 C4.3 29 7.6 29 11 29 C10.97679687 27.73542969 10.95359375 26.47085938 10.9296875 25.16796875 C10.91092874 23.5078184 10.89272865 21.84766167 10.875 20.1875 C10.85824219 19.35412109 10.84148437 18.52074219 10.82421875 17.66210938 C10.81777344 16.85966797 10.81132812 16.05722656 10.8046875 15.23046875 C10.79421387 14.49207764 10.78374023 13.75368652 10.77294922 12.99291992 C11 11 11 11 13 8 C16.07921132 7.74339906 18.21136993 7.60568496 21 9 C21 9.66 21 10.32 21 11 C19.68 11 18.36 11 17 11 C17 10.34 17 9.68 17 9 C16.01 9 15.02 9 14 9 C13.07811539 11.76565382 12.88214778 13.38283702 12.90234375 16.23046875 C12.90556641 17.03291016 12.90878906 17.83535156 12.91210938 18.66210938 C12.92048828 19.49548828 12.92886719 20.32886719 12.9375 21.1875 C12.94201172 22.03248047 12.94652344 22.87746094 12.95117188 23.74804688 C12.96294597 25.83206155 12.9808811 27.91603977 13 30 C12.3819751 30.15178711 11.7639502 30.30357422 11.12719727 30.45996094 C9.72935275 30.81483665 8.34048764 31.20760082 6.96484375 31.640625 C4.96320234 32.24227444 3.07685412 32.75307042 1 33 C-1 31.75 -1 31.75 -2 30 C-2 29.34 -2 28.68 -2 28 C-1.34 28 -0.68 28 0 28 C0 18.76 0 9.52 0 0 Z " fill="#FDE8EE" transform="translate(203,228)"/>
<path d="M0 0 C0.66 0 1.32 0 2 0 C2 1.32 2 2.64 2 4 C2.99 4 3.98 4 5 4 C5 3.34 5 2.68 5 2 C5.99 2.33 6.98 2.66 8 3 C8 3.66 8 4.32 8 5 C7.34 5 6.68 5 6 5 C5.67 6.65 5.34 8.3 5 10 C3.68 10 2.36 10 1 10 C0.95101563 10.63808594 0.90203125 11.27617187 0.8515625 11.93359375 C0.77679688 12.75988281 0.70203125 13.58617187 0.625 14.4375 C0.52058594 15.67306641 0.52058594 15.67306641 0.4140625 16.93359375 C0.27742188 17.61550781 0.14078125 18.29742187 0 19 C-0.66 19.33 -1.32 19.66 -2 20 C-4.06938617 15.86122765 -3.46097865 10.77959201 -2.328125 6.40625 C-1.60359267 4.24632344 -0.84084039 2.11711599 0 0 Z " fill="#D80433" transform="translate(350,190)"/>
<path d="M0 0 C3.3 0 6.6 0 10 0 C10 0.33 10 0.66 10 1 C8.02 1.33 6.04 1.66 4 2 C4 3.32 4 4.64 4 6 C3.34 6 2.68 6 2 6 C2 13.26 2 20.52 2 28 C4.31 28 6.62 28 9 28 C9 28.33 9 28.66 9 29 C6.03 29.33 3.06 29.66 0 30 C0 20.1 0 10.2 0 0 Z " fill="#D2495D" transform="translate(240,227)"/>
<path d="M0 0 C2 2 2 2 2.25 5 C2 8 2 8 0 10 C-3 10.3125 -3 10.3125 -6 10 C-8 7 -8 7 -7.75 3.875 C-7.37875 2.451875 -7.37875 2.451875 -7 1 C-4.48718205 -0.25640898 -2.78302919 -0.20872719 0 0 Z " fill="#C12036" transform="translate(248,214)"/>
<path d="M0 0 C0.99 0.33 1.98 0.66 3 1 C2.34 1 1.68 1 1 1 C1.66 2.98 2.32 4.96 3 7 C3.99 6.67 4.98 6.34 6 6 C7.72795352 5.93197033 9.45835365 5.91504355 11.1875 5.9375 C12.08855469 5.94652344 12.98960937 5.95554688 13.91796875 5.96484375 C14.60503906 5.97644531 15.29210937 5.98804688 16 6 C16.66 7.32 17.32 8.64 18 10 C17.16855469 10.06058594 16.33710938 10.12117187 15.48046875 10.18359375 C14.39378906 10.26738281 13.30710938 10.35117188 12.1875 10.4375 C11.10855469 10.51871094 10.02960938 10.59992188 8.91796875 10.68359375 C5.94010095 10.90212461 5.94010095 10.90212461 3 12 C2.731875 11.236875 2.46375 10.47375 2.1875 9.6875 C1.05575888 7.12619116 0.08776599 5.80307062 -2 4 C-1.34 2.68 -0.68 1.36 0 0 Z " fill="#FBDFE3" transform="translate(147,229)"/>
<path d="M0 0 C3.93766632 3.76646344 3.93766632 3.76646344 4.11352539 7.24658203 C4.10828857 8.15778809 4.10305176 9.06899414 4.09765625 10.0078125 C4.09443359 10.99394531 4.09121094 11.98007813 4.08789062 12.99609375 C4.07951172 14.02863281 4.07113281 15.06117188 4.0625 16.125 C4.05798828 17.16527344 4.05347656 18.20554688 4.04882812 19.27734375 C4.03701967 21.85158687 4.01908385 24.42580053 4 27 C0.7 27 -2.6 27 -6 27 C-6 26.34 -6 25.68 -6 25 C-3.36 25 -0.72 25 2 25 C1.85982174 22.02046641 1.71313658 19.04150696 1.5625 16.0625 C1.52318359 15.21236328 1.48386719 14.36222656 1.44335938 13.48632812 C1.40146484 12.67744141 1.35957031 11.86855469 1.31640625 11.03515625 C1.27974854 10.2862915 1.24309082 9.53742676 1.20532227 8.76586914 C1.18228937 6.97538674 1.18228937 6.97538674 0 6 C-0.04080783 4.00041636 -0.04254356 1.99954746 0 0 Z " fill="#C24155" transform="translate(171,230)"/>
<path d="M0 0 C0.99 0.66 1.98 1.32 3 2 C-2.94 2.33 -8.88 2.66 -15 3 C-15 3.99 -15 4.98 -15 6 C-11.37 6 -7.74 6 -4 6 C-3.67 6.66 -3.34 7.32 -3 8 C-9.435 8.495 -9.435 8.495 -16 9 C-16.66 7.02 -17.32 5.04 -18 3 C-11.96430467 0.31746874 -6.62923625 -0.90666286 0 0 Z " fill="#BA243C" transform="translate(166,227)"/>
<path d="M0 0 C0.33 0 0.66 0 1 0 C1 2.66666667 1 5.33333333 1 8 C1.66 7.67 2.32 7.34 3 7 C4.99960012 6.960008 7.00047242 6.95653201 9 7 C8.01 7.66 7.02 8.32 6 9 C4.65993149 9.96992862 3.32701082 10.94978172 2 11.9375 C1.319375 12.44152344 0.63875 12.94554687 -0.0625 13.46484375 C-1.84701292 14.87878241 -3.42906943 16.35543206 -5 18 C-4.51030705 11.38914524 -2.66557258 6.05022986 0 0 Z " fill="#FDD7DE" transform="translate(364,179)"/>
<path d="M0 0 C2.475 1.485 2.475 1.485 5 3 C3.70700306 5.88437779 2.34058637 7.87219421 0 10 C-2 9 -4 8 -6 7 C-7.49756871 6.90500497 -8.99942932 6.87012802 -10.5 6.875 C-11.2940625 6.87242187 -12.088125 6.86984375 -12.90625 6.8671875 C-15.05918534 6.86722004 -15.05918534 6.86722004 -17 8 C-16.67 7.01 -16.34 6.02 -16 5 C-11.33333333 5 -6.66666667 5 -2 5 C-1.34 3.35 -0.68 1.7 0 0 Z " fill="#BE1F39" transform="translate(139,221)"/>
<path d="M0 0 C2.05078125 0.03255208 4.1015625 0.06510417 6.15234375 0.09765625 C5.40234375 4.84765625 5.40234375 4.84765625 3.15234375 7.09765625 C0.65234375 7.34765625 0.65234375 7.34765625 -1.84765625 7.09765625 C-2.50765625 6.43765625 -3.16765625 5.77765625 -3.84765625 5.09765625 C-3.1001104 0.16385362 -3.1001104 0.16385362 0 0 Z " fill="#E1E1E1" transform="translate(308.84765625,243.90234375)"/>
<path d="M0 0 C2.01822917 0.06510417 4.03645833 0.13020833 6.0546875 0.1953125 C5.7421875 2.5703125 5.7421875 2.5703125 5.0546875 5.1953125 C2.0546875 7.1953125 2.0546875 7.1953125 -0.6328125 6.8203125 C-1.3959375 6.6140625 -2.1590625 6.4078125 -2.9453125 6.1953125 C-3.5703125 4.3203125 -3.5703125 4.3203125 -3.9453125 2.1953125 C-1.9453125 0.1953125 -1.9453125 0.1953125 0 0 Z " fill="#FAC8D2" transform="translate(158.9453125,243.8046875)"/>
<path d="M0 0 C-0.474375 0.804375 -0.94875 1.60875 -1.4375 2.4375 C-3.29359618 6.66939929 -3.70559978 10.43172078 -4 15 C-4.66 14.67 -5.32 14.34 -6 14 C-6 11.03 -6 8.06 -6 5 C-7.98 5.66 -9.96 6.32 -12 7 C-5.54347826 -1.84782609 -5.54347826 -1.84782609 0 0 Z " fill="#C12143" transform="translate(373,188)"/>
<path d="M0 0 C0.33 0 0.66 0 1 0 C1.13277344 0.90363281 1.26554687 1.80726563 1.40234375 2.73828125 C1.66724609 4.50751953 1.66724609 4.50751953 1.9375 6.3125 C2.11152344 7.48425781 2.28554688 8.65601563 2.46484375 9.86328125 C2.92093031 13.01641403 2.92093031 13.01641403 4 16 C12.91 16 21.82 16 31 16 C31 16.66 31 17.32 31 18 C21.43 18 11.86 18 2 18 C0.12087531 13.30218827 -0.22365258 11.07080262 -0.125 6.1875 C-0.10695313 5.02605469 -0.08890625 3.86460937 -0.0703125 2.66796875 C-0.04710937 1.78753906 -0.02390625 0.90710938 0 0 Z " fill="#FCC4CF" transform="translate(345,198)"/>
<path d="M0 0 C0 3 0 3 -1 4.8125 C-2.55627841 8.21685902 -2.45448369 11.50020384 -1.375 15.0625 C-0.84319835 17.81014184 -1.83095642 19.5243783 -3 22 C-3.66 22 -4.32 22 -5 22 C-6.93907995 15.94037515 -6.3537739 11.25581191 -3.5625 5.625 C-1.23472669 1.23472669 -1.23472669 1.23472669 0 0 Z " fill="#C41F38" transform="translate(114,223)"/>
<path d="M0 0 C2.875 0.6875 2.875 0.6875 6 2 C6.66666667 3.66666667 7.33333333 5.33333333 8 7 C12.37553494 8.90861613 16.13864877 9.22166023 20.875 9.125 C22.02742188 9.10695312 23.17984375 9.08890625 24.3671875 9.0703125 C25.23601562 9.04710937 26.10484375 9.02390625 27 9 C24.16974094 11.83025906 22.19694328 11.33336558 18.25 11.375 C12.6286934 11.28312982 9.17306313 11.06606151 5 7 C0 1.62466488 0 1.62466488 0 0 Z " fill="#BA1B37" transform="translate(110,246)"/>
<path d="M0 0 C3.3 0 6.6 0 10 0 C10.33 1.32 10.66 2.64 11 4 C11.66 4.33 12.32 4.66 13 5 C13 5.99 13 6.98 13 8 C11.35 8 9.7 8 8 8 C8 9.65 8 11.3 8 13 C7.34 13 6.68 13 6 13 C6 10.36 6 7.72 6 5 C6.99 5 7.98 5 9 5 C9 3.68 9 2.36 9 1 C6.03 1 3.06 1 0 1 C0 0.67 0 0.34 0 0 Z " fill="#DA263F" transform="translate(204,227)"/>
<path d="M0 0 C0.66 0.66 1.32 1.32 2 2 C1.67 2.66 1.34 3.32 1 4 C0.84733388 5.73868744 0.75067404 7.48247501 0.68359375 9.2265625 C0.64169922 10.2578125 0.59980469 11.2890625 0.55664062 12.3515625 C0.49766602 13.97191406 0.49766602 13.97191406 0.4375 15.625 C0.39431641 16.71296875 0.35113281 17.8009375 0.30664062 18.921875 C0.2003547 21.6144517 0.09831943 24.30712253 0 27 C-0.33 27 -0.66 27 -1 27 C-1 20.4 -1 13.8 -1 7 C-3.97 6.505 -3.97 6.505 -7 6 C-6.360625 5.87625 -5.72125 5.7525 -5.0625 5.625 C-4.381875 5.41875 -3.70125 5.2125 -3 5 C-2.67 4.34 -2.34 3.68 -2 3 C-1.34 2.01 -0.68 1.02 0 0 Z " fill="#DC405A" transform="translate(225,230)"/>
<path d="M0 0 C1.32 1.32 2.64 2.64 4 4 C3.67 4.99 3.34 5.98 3 7 C-5.58 7 -14.16 7 -23 7 C-23 6.67 -23 6.34 -23 6 C-15.08 5.67 -7.16 5.34 1 5 C0.67 3.35 0.34 1.7 0 0 Z " fill="#B72D49" transform="translate(372,208)"/>
<path d="M0 0 C-3.21197292 1.07065764 -5.38551323 1.03570203 -8.75 0.9375 C-13.62751913 0.88422613 -17.43212958 1.33895621 -22 3 C-16.45607535 -3.7759079 -7.3984457 -2.88719832 0 0 Z " fill="#C11736" transform="translate(138,220)"/>
<path d="M0 0 C0.66 0.33 1.32 0.66 2 1 C1.01 2.485 1.01 2.485 0 4 C-0.24055468 6.05709596 -0.24055468 6.05709596 -0.125 8.1875 C-0.08375 9.445625 -0.0425 10.70375 0 12 C-2.04119788 10.38405168 -4.04072937 8.7143618 -6 7 C-6 6.34 -6 5.68 -6 5 C-6.99 4.67 -7.98 4.34 -9 4 C-6 3 -6 3 -3.8125 3.9375 C-3.214375 4.288125 -2.61625 4.63875 -2 5 C-2 3.68 -2 2.36 -2 1 C-1.34 0.67 -0.68 0.34 0 0 Z " fill="#FBDCE0" transform="translate(147,241)"/>
<path d="M0 0 C0.8353125 0.37125 0.8353125 0.37125 1.6875 0.75 C0.718125 1.348125 -0.25125 1.94625 -1.25 2.5625 C-4.54302042 4.46127509 -4.54302042 4.46127509 -5.3125 7.75 C-5.53701458 9.97574335 -5.72032878 12.20581519 -5.875 14.4375 C-5.95878906 15.61699219 -6.04257813 16.79648438 -6.12890625 18.01171875 C-6.18949219 18.91535156 -6.25007812 19.81898438 -6.3125 20.75 C-6.6425 20.75 -6.9725 20.75 -7.3125 20.75 C-7.44767903 17.99835568 -7.54665251 15.25335479 -7.625 12.5 C-7.66689453 11.72269531 -7.70878906 10.94539062 -7.75195312 10.14453125 C-7.87560631 4.35756207 -7.87560631 4.35756207 -4.9375 1.1875 C-2.3125 -0.25 -2.3125 -0.25 0 0 Z " fill="#F0B9C1" transform="translate(197.3125,236.25)"/>
<path d="M0 0 C0.33 0 0.66 0 1 0 C1 4.29 1 8.58 1 13 C0.67 13 0.34 13 0 13 C0 8.71 0 4.42 0 0 Z M-10 13 C-6.7 13 -3.4 13 0 13 C-0.33 13.66 -0.66 14.32 -1 15 C-1.99 15 -2.98 15 -4 15 C-4.33 15.66 -4.66 16.32 -5 17 C-5 16.34 -5 15.68 -5 15 C-6.65 15 -8.3 15 -10 15 C-10 14.34 -10 13.68 -10 13 Z " fill="#FEEFF6" transform="translate(191,244)"/>
<path d="M0 0 C1.41823316 0.08006155 2.83603027 0.17654137 4.25 0.3125 C-0.375 4.3125 -0.375 4.3125 -3.75 4.3125 C-5.42099977 4.62338368 -7.08871537 4.95330332 -8.75 5.3125 C-6.33348981 1.10987358 -4.73606739 -0.03729187 0 0 Z " fill="#FCE7E7" transform="translate(128.75,226.6875)"/>
<path d="M0 0 C1.32 0 2.64 0 4 0 C3.67 1.32 3.34 2.64 3 4 C2.34 4 1.68 4 1 4 C1 4.66 1 5.32 1 6 C1.99 5.67 2.98 5.34 4 5 C4 5.66 4 6.32 4 7 C2.0625 7.5625 2.0625 7.5625 0 8 C-1 7 -1 7 -1.125 4 C-1 1 -1 1 0 0 Z " fill="#D20322" transform="translate(243,215)"/>
<path d="M0 0 C-0.33 1.65 -0.66 3.3 -1 5 C-3.31 5.66 -5.62 6.32 -8 7 C-8 6.34 -8 5.68 -8 5 C-7.34 5 -6.68 5 -6 5 C-5.87625 4.360625 -5.7525 3.72125 -5.625 3.0625 C-5.41875 2.381875 -5.2125 1.70125 -5 1 C-3 0 -3 0 0 0 Z " fill="#D4072F" transform="translate(361,182)"/>
<path d="M0 0 C0.33 0 0.66 0 1 0 C1 1.65 1 3.3 1 5 C0.01 5 -0.98 5 -2 5 C-2.33 5.66 -2.66 6.32 -3 7 C-3.66 6.34 -4.32 5.68 -5 5 C-6.98821313 4.60235737 -8.98944339 4.26224651 -11 4 C-11 3.67 -11 3.34 -11 3 C-10.28972656 2.86722656 -9.57945312 2.73445313 -8.84765625 2.59765625 C-7.92855469 2.42105469 -7.00945312 2.24445313 -6.0625 2.0625 C-4.68771484 1.80146484 -4.68771484 1.80146484 -3.28515625 1.53515625 C-1.04710156 1.22285012 -1.04710156 1.22285012 0 0 Z " fill="#FDD9DF" transform="translate(164,254)"/>
<path d="M0 0 C8.09802693 0.34606953 8.09802693 0.34606953 11.5 2.8125 C12.96332668 4.94651807 13.63644809 6.4551366 14 9 C13.01 9 12.02 9 11 9 C11 8.01 11 7.02 11 6 C9.17287542 3.14511784 6.9549506 2.60228404 3.8125 1.8125 C2.554375 1.544375 1.29625 1.27625 0 1 C0 0.67 0 0.34 0 0 Z " fill="#BC263F" transform="translate(220,227)"/>
<path d="M0 0 C2.81169728 1.3179831 3.61334879 3.23353014 5 5.9375 C4.01 6.4325 4.01 6.4325 3 6.9375 C2.34 5.2875 1.68 3.6375 1 1.9375 C-2.11785113 2.58394661 -2.11785113 2.58394661 -3 4.9375 C-4.65 4.6075 -6.3 4.2775 -8 3.9375 C-2 -0.0625 -2 -0.0625 0 0 Z " fill="#B81B35" transform="translate(139,245.0625)"/>
<path d="M0 0 C-0.99 3.3 -1.98 6.6 -3 10 C-4 6 -4 6 -3 3 C-4.65 3.33 -6.3 3.66 -8 4 C-4.5 0 -4.5 0 0 0 Z " fill="#BC2948" transform="translate(364,179)"/>
<path d="M0 0 C1.65 0 3.3 0 5 0 C4.67 1.32 4.34 2.64 4 4 C2.35 4.33 0.7 4.66 -1 5 C-1.33 4.01 -1.66 3.02 -2 2 C-1.34 2 -0.68 2 0 2 C0 1.34 0 0.68 0 0 Z " fill="#D2011C" transform="translate(220,230)"/>
<path d="M0 0 C0.33 0.99 0.66 1.98 1 3 C0.34 3 -0.32 3 -1 3 C-1 3.66 -1 4.32 -1 5 C-4.3 4.01 -7.6 3.02 -11 2 C-11 1.67 -11 1.34 -11 1 C-9.88625 1.020625 -8.7725 1.04125 -7.625 1.0625 C-4.58237918 1.01004102 -2.83730029 0 0 0 Z " fill="#FCDDDF" transform="translate(143,217)"/>
<path d="M0 0 C1.65 0 3.3 0 5 0 C4.34 1.65 3.68 3.3 3 5 C1.35 4.67 -0.3 4.34 -2 4 C-1.34 2.68 -0.68 1.36 0 0 Z " fill="#C70827" transform="translate(193,229)"/>
<path d="M0 0 C-0.33 1.32 -0.66 2.64 -1 4 C-3.31 4 -5.62 4 -8 4 C-8 3.34 -8 2.68 -8 2 C-5.09399739 0.74335022 -3.20395416 0 0 0 Z " fill="#FDF1F3" transform="translate(165,245)"/>
<path d="M0 0 C2.64 0 5.28 0 8 0 C8.33 1.65 8.66 3.3 9 5 C8.01 5.495 8.01 5.495 7 6 C7 5.34 7 4.68 7 4 C6.401875 3.896875 5.80375 3.79375 5.1875 3.6875 C2.71756736 2.91123545 1.67748765 1.92911079 0 0 Z " fill="#C50424" transform="translate(205,228)"/>
<path d="M0 0 C1.98 0.66 3.96 1.32 6 2 C6.33 3.65 6.66 5.3 7 7 C3.17053157 5.54744301 1.87949705 3.57104439 0 0 Z " fill="#C0102A" transform="translate(110,246)"/>
<path d="M0 0 C2.375 -0.125 2.375 -0.125 5 0 C7 2 7 2 7.125 5.125 C7.08375 6.07375 7.0425 7.0225 7 8 C5.5 6.75 5.5 6.75 4 5 C4 3.68 4 2.36 4 1 C2.68 0.67 1.36 0.34 0 0 Z " fill="#B81732" transform="translate(243,214)"/>
<path d="M0 0 C1.5 1 1.5 1 3 3 C3.27345479 5.71846235 3.13491285 8.25677199 3 11 C2.690625 10.360625 2.38125 9.72125 2.0625 9.0625 C1.1654837 7.06389179 1.1654837 7.06389179 0 6 C-0.04080783 4.00041636 -0.04254356 1.99954746 0 0 Z " fill="#BC1B37" transform="translate(171,230)"/>
<path d="M0 0 C0.33 0.99 0.66 1.98 1 3 C-2.375 3.125 -2.375 3.125 -6 3 C-6.66 2.34 -7.32 1.68 -8 1 C-5.07175348 0.02391783 -3.04386724 -0.08226668 0 0 Z " fill="#FFF5F5" transform="translate(162,235)"/>
<path d="M0 0 C0.66 1.32 1.32 2.64 2 4 C1.01 4.33 0.02 4.66 -1 5 C-1.99 6.485 -1.99 6.485 -3 8 C-3.66 7.67 -4.32 7.34 -5 7 C-4.34 5.02 -3.68 3.04 -3 1 C-2.01 1.33 -1.02 1.66 0 2 C0 1.34 0 0.68 0 0 Z " fill="#FAE0E0" transform="translate(253,216)"/>
<path d="M0 0 C1.32 0.33 2.64 0.66 4 1 C3.67 1.99 3.34 2.98 3 4 C2.34 4 1.68 4 1 4 C0.67 4.99 0.34 5.98 0 7 C0 4.69 0 2.38 0 0 Z " fill="#C30920" transform="translate(241,229)"/>
<path d="M0 0 C1.32 0 2.64 0 4 0 C3.67 1.32 3.34 2.64 3 4 C0.36 4 -2.28 4 -5 4 C-5 3.67 -5 3.34 -5 3 C-3.35 2.67 -1.7 2.34 0 2 C0 1.34 0 0.68 0 0 Z " fill="#C40620" transform="translate(131,222)"/>
<path d="M0 0 C-5 2.5 -5 2.5 -10 5 C-9.67 3.68 -9.34 2.36 -9 1 C-5.92677456 0.08941469 -3.19902639 -0.08886184 0 0 Z " fill="#FCCED3" transform="translate(125,218)"/>
</svg>
